<svg xmlns="http://www.w3.org/2000/svg" xmlns:xlink="http://www.w3.org/1999/xlink" width="600" zoomAndPan="magnify" viewBox="0 0 450 135.000003" height="180" preserveAspectRatio="xMidYMid meet" version="1.0"><defs><g/><clipPath id="068201b344"><path d="M 6.765625 0.457031 L 177.996094 0.457031 L 177.996094 133.71875 L 6.765625 133.71875 Z M 6.765625 0.457031 " clip-rule="nonzero"/></clipPath><clipPath id="d3f73b0184"><path d="M 215 0 L 220 0 L 220 134.007812 L 215 134.007812 Z M 215 0 " clip-rule="nonzero"/></clipPath></defs><g clip-path="url(#068201b344)"><path fill="#ffffff" d="M 94.246094 32.035156 C 93.871094 32.035156 93.402344 32.035156 93.027344 32.035156 C 83.628906 32.035156 74.796875 35.703125 68.21875 42.28125 C 61.546875 48.949219 57.976562 57.691406 57.976562 67.085938 C 57.976562 76.484375 61.640625 85.316406 68.21875 91.894531 C 70.566406 94.242188 73.199219 96.214844 76.019531 97.71875 C 43.597656 87.851562 33.828125 65.582031 33.828125 65.582031 C 33.828125 65.582031 61.078125 23.671875 122.25 29.96875 L 125.632812 20.574219 C 125.632812 20.574219 125.539062 20.574219 125.539062 20.574219 L 132.867188 0.652344 L 122.4375 20.101562 C 58.070312 11.550781 6.765625 65.960938 6.765625 65.960938 C 6.765625 65.960938 42.660156 104.109375 91.148438 102.230469 C 91.804688 102.230469 92.367188 102.324219 93.027344 102.324219 C 102.421875 102.324219 111.253906 98.660156 117.832031 92.082031 C 124.503906 85.410156 128.074219 76.671875 128.074219 67.273438 C 128.074219 57.878906 124.410156 49.046875 117.832031 42.46875 C 115.953125 40.589844 113.980469 38.992188 111.820312 37.675781 C 141.699219 48.105469 150.816406 68.871094 150.816406 68.871094 C 150.816406 68.871094 123.566406 110.78125 62.394531 104.484375 L 59.011719 113.882812 C 59.011719 113.882812 59.105469 113.882812 59.105469 113.882812 L 51.773438 133.804688 L 62.203125 114.164062 C 126.667969 122.714844 177.972656 68.308594 177.972656 68.308594 C 177.972656 68.308594 142.359375 30.535156 94.246094 32.035156 Z M 93.121094 91.140625 C 79.871094 91.140625 69.0625 80.335938 69.0625 67.085938 C 69.0625 53.835938 79.871094 43.03125 93.121094 43.03125 C 106.371094 43.03125 117.175781 53.835938 117.175781 67.085938 C 117.175781 80.335938 106.371094 91.140625 93.121094 91.140625 Z M 93.121094 91.140625 " fill-opacity="1" fill-rule="nonzero"/></g><path fill="#ffffff" d="M 101.390625 67.085938 C 101.390625 67.679688 101.332031 68.265625 101.214844 68.847656 C 101.101562 69.425781 100.929688 69.992188 100.703125 70.539062 C 100.476562 71.085938 100.199219 71.605469 99.867188 72.097656 C 99.539062 72.589844 99.164062 73.046875 98.746094 73.464844 C 98.328125 73.882812 97.871094 74.257812 97.378906 74.585938 C 96.886719 74.917969 96.367188 75.195312 95.820312 75.421875 C 95.273438 75.648438 94.710938 75.820312 94.128906 75.933594 C 93.546875 76.050781 92.960938 76.109375 92.367188 76.109375 C 91.777344 76.109375 91.1875 76.050781 90.609375 75.933594 C 90.027344 75.820312 89.464844 75.648438 88.917969 75.421875 C 88.367188 75.195312 87.847656 74.917969 87.355469 74.585938 C 86.863281 74.257812 86.410156 73.882812 85.988281 73.464844 C 85.570312 73.046875 85.195312 72.589844 84.867188 72.097656 C 84.539062 71.605469 84.261719 71.085938 84.035156 70.539062 C 83.808594 69.992188 83.636719 69.425781 83.519531 68.847656 C 83.40625 68.265625 83.347656 67.679688 83.347656 67.085938 C 83.347656 66.496094 83.40625 65.90625 83.519531 65.328125 C 83.636719 64.746094 83.808594 64.183594 84.035156 63.632812 C 84.261719 63.085938 84.539062 62.566406 84.867188 62.074219 C 85.195312 61.582031 85.570312 61.125 85.988281 60.707031 C 86.410156 60.289062 86.863281 59.914062 87.355469 59.585938 C 87.847656 59.257812 88.367188 58.980469 88.917969 58.753906 C 89.464844 58.527344 90.027344 58.355469 90.609375 58.238281 C 91.1875 58.125 91.777344 58.066406 92.367188 58.066406 C 92.960938 58.066406 93.546875 58.125 94.128906 58.238281 C 94.710938 58.355469 95.273438 58.527344 95.820312 58.753906 C 96.367188 58.980469 96.886719 59.257812 97.378906 59.585938 C 97.871094 59.914062 98.328125 60.289062 98.746094 60.707031 C 99.164062 61.125 99.539062 61.582031 99.867188 62.074219 C 100.199219 62.566406 100.476562 63.085938 100.703125 63.632812 C 100.929688 64.183594 101.101562 64.746094 101.214844 65.328125 C 101.332031 65.90625 101.390625 66.496094 101.390625 67.085938 Z M 101.390625 67.085938 " fill-opacity="1" fill-rule="nonzero"/><g clip-path="url(#d3f73b0184)"><path stroke-linecap="butt" transform="matrix(0, -0.744485, 0.744485, 0, 215.095806, 134.00285)" fill="none" stroke-linejoin="miter" d="M -0.00141894 2.998472 L 186.68377 2.998472 " stroke="#ffffff" stroke-width="6" stroke-opacity="1" stroke-miterlimit="4"/></g><g fill="#ffffff" fill-opacity="1"><g transform="translate(309.535136, 60.295277)"><g><path d="M 7.78125 0 L 1.640625 0 L 1.640625 -14.65625 L 7.78125 -14.65625 Z M 7.78125 0 "/></g></g></g><g fill="#ffffff" fill-opacity="1"><g transform="translate(325.215758, 60.295277)"><g><path d="M 12.5 0 L 6.34375 0 L 6.34375 -11.03125 L 0.609375 -11.03125 L 0.609375 -14.65625 L 18.234375 -14.65625 L 18.234375 -11.03125 L 12.5 -11.03125 Z M 12.5 0 "/></g></g></g><g fill="#ffffff" fill-opacity="1"><g transform="translate(350.322888, 60.295277)"><g><path d="M 11.078125 0.3125 C 7.453125 0.3125 4.785156 -0.429688 3.078125 -1.921875 C 1.566406 -3.242188 0.8125 -5.039062 0.8125 -7.3125 C 0.8125 -9.59375 1.566406 -11.390625 3.078125 -12.703125 C 4.785156 -14.191406 7.453125 -14.9375 11.078125 -14.9375 C 14.691406 -14.9375 17.351562 -14.191406 19.0625 -12.703125 C 20.570312 -11.390625 21.328125 -9.59375 21.328125 -7.3125 C 21.328125 -5.039062 20.570312 -3.242188 19.0625 -1.921875 C 17.351562 -0.429688 14.691406 0.3125 11.078125 0.3125 Z M 11.078125 -3.609375 C 12.554688 -3.609375 13.644531 -4.035156 14.34375 -4.890625 C 14.894531 -5.578125 15.171875 -6.382812 15.171875 -7.3125 C 15.171875 -8.25 14.894531 -9.054688 14.34375 -9.734375 C 13.644531 -10.597656 12.554688 -11.03125 11.078125 -11.03125 C 9.585938 -11.03125 8.492188 -10.597656 7.796875 -9.734375 C 7.242188 -9.054688 6.96875 -8.25 6.96875 -7.3125 C 6.96875 -6.382812 7.242188 -5.578125 7.796875 -4.890625 C 8.492188 -4.035156 9.585938 -3.609375 11.078125 -3.609375 Z M 11.078125 -3.609375 "/></g></g></g><g fill="#ffffff" fill-opacity="1"><g transform="translate(240.233271, 72.488935)"><g><path d="M 2.703125 0 L 0.5625 0 L 0.5625 -5.09375 L 2.703125 -5.09375 Z M 2.703125 0 "/></g></g><g transform="translate(243.506785, 72.488935)"><g><path d="M 8.125 0 L 5.578125 0 L 2.703125 -3.4375 L 2.703125 0 L 0.5625 0 L 0.5625 -5.09375 L 3.109375 -5.09375 L 5.984375 -1.65625 L 5.984375 -5.09375 L 8.125 -5.09375 Z M 8.125 0 "/></g></g><g transform="translate(252.201836, 72.488935)"><g><path d="M 3.359375 0.109375 C 2.671875 0.109375 2.113281 0.0351562 1.6875 -0.109375 C 1.269531 -0.253906 0.953125 -0.457031 0.734375 -0.71875 C 0.515625 -0.976562 0.367188 -1.28125 0.296875 -1.625 L 2.5625 -1.625 C 2.726562 -1.375 2.992188 -1.25 3.359375 -1.25 C 3.722656 -1.25 3.992188 -1.375 4.171875 -1.625 C 4.179688 -1.644531 4.1875 -1.664062 4.1875 -1.6875 C 4.1875 -1.75 4.097656 -1.796875 3.921875 -1.828125 C 3.753906 -1.859375 3.503906 -1.878906 3.171875 -1.890625 C 2.753906 -1.910156 2.3125 -1.957031 1.84375 -2.03125 C 0.800781 -2.195312 0.28125 -2.613281 0.28125 -3.28125 C 0.28125 -3.34375 0.285156 -3.40625 0.296875 -3.46875 C 0.367188 -3.800781 0.515625 -4.097656 0.734375 -4.359375 C 0.953125 -4.617188 1.269531 -4.820312 1.6875 -4.96875 C 2.113281 -5.113281 2.671875 -5.1875 3.359375 -5.1875 C 4.046875 -5.1875 4.597656 -5.113281 5.015625 -4.96875 C 5.441406 -4.820312 5.765625 -4.617188 5.984375 -4.359375 C 6.203125 -4.097656 6.351562 -3.800781 6.4375 -3.46875 L 4.171875 -3.46875 C 3.992188 -3.707031 3.722656 -3.828125 3.359375 -3.828125 C 2.992188 -3.828125 2.726562 -3.707031 2.5625 -3.46875 C 2.550781 -3.445312 2.546875 -3.425781 2.546875 -3.40625 C 2.546875 -3.351562 2.625 -3.3125 2.78125 -3.28125 C 2.945312 -3.257812 3.1875 -3.238281 3.5 -3.21875 C 3.820312 -3.195312 4.160156 -3.164062 4.515625 -3.125 C 4.867188 -3.082031 5.203125 -3.007812 5.515625 -2.90625 C 5.828125 -2.800781 6.070312 -2.644531 6.25 -2.4375 C 6.382812 -2.28125 6.453125 -2.078125 6.453125 -1.828125 C 6.453125 -1.765625 6.445312 -1.695312 6.4375 -1.625 C 6.351562 -1.28125 6.203125 -0.976562 5.984375 -0.71875 C 5.765625 -0.457031 5.441406 -0.253906 5.015625 -0.109375 C 4.597656 0.0351562 4.046875 0.109375 3.359375 0.109375 Z M 3.359375 0.109375 "/></g></g><g transform="translate(258.940589, 72.488935)"><g><path d="M 4.34375 0 L 2.203125 0 L 2.203125 -3.828125 L 0.21875 -3.828125 L 0.21875 -5.09375 L 6.34375 -5.09375 L 6.34375 -3.828125 L 4.34375 -3.828125 Z M 4.34375 0 "/></g></g><g transform="translate(265.494719, 72.488935)"><g><path d="M 2.703125 0 L 0.5625 0 L 0.5625 -5.09375 L 2.703125 -5.09375 Z M 2.703125 0 "/></g></g><g transform="translate(268.768233, 72.488935)"><g><path d="M 4.34375 0 L 2.203125 0 L 2.203125 -3.828125 L 0.21875 -3.828125 L 0.21875 -5.09375 L 6.34375 -5.09375 L 6.34375 -3.828125 L 4.34375 -3.828125 Z M 4.34375 0 "/></g></g><g transform="translate(275.322363, 72.488935)"><g><path d="M 3.578125 0.109375 C 2.335938 0.109375 1.460938 -0.144531 0.953125 -0.65625 C 0.523438 -1.09375 0.3125 -1.722656 0.3125 -2.546875 L 0.3125 -5.09375 L 2.453125 -5.09375 L 2.453125 -2.546875 C 2.453125 -2.191406 2.515625 -1.910156 2.640625 -1.703125 C 2.804688 -1.398438 3.117188 -1.25 3.578125 -1.25 C 4.035156 -1.25 4.351562 -1.398438 4.53125 -1.703125 C 4.644531 -1.910156 4.703125 -2.191406 4.703125 -2.546875 L 4.703125 -5.09375 L 6.84375 -5.09375 L 6.84375 -2.515625 C 6.84375 -1.710938 6.628906 -1.09375 6.203125 -0.65625 C 5.703125 -0.144531 4.828125 0.109375 3.578125 0.109375 Z M 3.578125 0.109375 "/></g></g><g transform="translate(282.490721, 72.488935)"><g><path d="M 4.34375 0 L 2.203125 0 L 2.203125 -3.828125 L 0.21875 -3.828125 L 0.21875 -5.09375 L 6.34375 -5.09375 L 6.34375 -3.828125 L 4.34375 -3.828125 Z M 4.34375 0 "/></g></g><g transform="translate(289.044851, 72.488935)"><g><path d="M 3.84375 0.109375 C 2.59375 0.109375 1.671875 -0.148438 1.078125 -0.671875 C 0.546875 -1.128906 0.28125 -1.753906 0.28125 -2.546875 C 0.28125 -3.335938 0.546875 -3.960938 1.078125 -4.421875 C 1.671875 -4.929688 2.59375 -5.1875 3.84375 -5.1875 C 5.101562 -5.1875 6.03125 -4.929688 6.625 -4.421875 C 7.15625 -3.960938 7.421875 -3.335938 7.421875 -2.546875 C 7.421875 -1.753906 7.15625 -1.128906 6.625 -0.671875 C 6.03125 -0.148438 5.101562 0.109375 3.84375 0.109375 Z M 3.84375 -1.25 C 4.363281 -1.25 4.742188 -1.398438 4.984375 -1.703125 C 5.179688 -1.941406 5.28125 -2.222656 5.28125 -2.546875 C 5.28125 -2.867188 5.179688 -3.148438 4.984375 -3.390625 C 4.742188 -3.679688 4.363281 -3.828125 3.84375 -3.828125 C 3.332031 -3.828125 2.953125 -3.679688 2.703125 -3.390625 C 2.515625 -3.148438 2.421875 -2.867188 2.421875 -2.546875 C 2.421875 -2.222656 2.515625 -1.941406 2.703125 -1.703125 C 2.953125 -1.398438 3.332031 -1.25 3.84375 -1.25 Z M 3.84375 -1.25 "/></g></g><g transform="translate(296.749326, 72.488935)"><g/></g><g transform="translate(298.552954, 72.488935)"><g><path d="M 3.96875 0 L 0.5625 0 L 0.5625 -5.09375 L 3.96875 -5.09375 C 5.363281 -5.09375 6.367188 -4.894531 6.984375 -4.5 C 7.472656 -4.1875 7.75 -3.757812 7.8125 -3.21875 C 7.84375 -2.988281 7.859375 -2.765625 7.859375 -2.546875 C 7.859375 -2.328125 7.84375 -2.097656 7.8125 -1.859375 C 7.789062 -1.628906 7.710938 -1.398438 7.578125 -1.171875 C 7.453125 -0.953125 7.25 -0.753906 6.96875 -0.578125 C 6.695312 -0.398438 6.316406 -0.257812 5.828125 -0.15625 C 5.347656 -0.0507812 4.726562 0 3.96875 0 Z M 3.765625 -1.265625 C 4.859375 -1.265625 5.472656 -1.535156 5.609375 -2.078125 C 5.648438 -2.234375 5.671875 -2.390625 5.671875 -2.546875 C 5.671875 -2.703125 5.648438 -2.851562 5.609375 -3 C 5.566406 -3.15625 5.484375 -3.296875 5.359375 -3.421875 C 5.234375 -3.546875 5.039062 -3.644531 4.78125 -3.71875 C 4.53125 -3.789062 4.191406 -3.828125 3.765625 -3.828125 L 2.703125 -3.828125 L 2.703125 -1.265625 Z M 3.765625 -1.265625 "/></g></g><g transform="translate(306.708337, 72.488935)"><g><path d="M 6.703125 0 L 0.5625 0 L 0.5625 -5.09375 L 6.421875 -5.09375 L 6.421875 -3.828125 L 2.703125 -3.828125 L 2.703125 -3.03125 L 5.84375 -3.03125 L 5.84375 -2.046875 L 2.703125 -2.046875 L 2.703125 -1.265625 L 6.703125 -1.265625 Z M 6.703125 0 "/></g></g><g transform="translate(313.695621, 72.488935)"><g/></g><g transform="translate(315.49925, 72.488935)"><g><path d="M 4.34375 0 L 2.203125 0 L 2.203125 -3.828125 L 0.21875 -3.828125 L 0.21875 -5.09375 L 6.34375 -5.09375 L 6.34375 -3.828125 L 4.34375 -3.828125 Z M 4.34375 0 "/></g></g><g transform="translate(322.05338, 72.488935)"><g><path d="M 7.515625 0 L 5.5 0 C 5.40625 -0.125 5.335938 -0.285156 5.296875 -0.484375 C 5.265625 -0.640625 5.21875 -0.789062 5.15625 -0.9375 C 5.09375 -1.082031 4.976562 -1.203125 4.8125 -1.296875 C 4.644531 -1.398438 4.40625 -1.457031 4.09375 -1.46875 L 2.703125 -1.46875 L 2.703125 0 L 0.5625 0 L 0.5625 -5.09375 L 4.046875 -5.09375 C 4.867188 -5.09375 5.535156 -5.03125 6.046875 -4.90625 C 6.554688 -4.78125 6.925781 -4.582031 7.15625 -4.3125 C 7.394531 -4.050781 7.515625 -3.707031 7.515625 -3.28125 C 7.515625 -2.925781 7.429688 -2.625 7.265625 -2.375 C 7.109375 -2.132812 6.851562 -1.941406 6.5 -1.796875 C 6.84375 -1.660156 7.0625 -1.492188 7.15625 -1.296875 C 7.257812 -1.097656 7.320312 -0.882812 7.34375 -0.65625 C 7.375 -0.445312 7.429688 -0.226562 7.515625 0 Z M 2.703125 -2.71875 L 3.921875 -2.734375 C 4.265625 -2.734375 4.535156 -2.75 4.734375 -2.78125 C 4.929688 -2.8125 5.070312 -2.851562 5.15625 -2.90625 C 5.25 -2.957031 5.304688 -3.015625 5.328125 -3.078125 C 5.359375 -3.140625 5.375 -3.207031 5.375 -3.28125 C 5.375 -3.34375 5.359375 -3.40625 5.328125 -3.46875 C 5.304688 -3.539062 5.25 -3.601562 5.15625 -3.65625 C 5.070312 -3.707031 4.929688 -3.75 4.734375 -3.78125 C 4.535156 -3.8125 4.265625 -3.828125 3.921875 -3.828125 L 2.703125 -3.828125 Z M 2.703125 -2.71875 "/></g></g><g transform="translate(329.860818, 72.488935)"><g><path d="M 8.546875 0 L 6.390625 0 L 5.90625 -0.828125 L 2.703125 -0.828125 L 2.21875 0 L 0.046875 0 L 3.3125 -5.09375 L 5.296875 -5.09375 Z M 5.1875 -2.09375 L 4.296875 -3.640625 L 3.421875 -2.09375 Z M 5.1875 -2.09375 "/></g></g><g transform="translate(338.470658, 72.488935)"><g><path d="M 4.34375 0 L 2.203125 0 L 2.203125 -3.828125 L 0.21875 -3.828125 L 0.21875 -5.09375 L 6.34375 -5.09375 L 6.34375 -3.828125 L 4.34375 -3.828125 Z M 4.34375 0 "/></g></g><g transform="translate(345.024788, 72.488935)"><g><path d="M 8.546875 0 L 6.390625 0 L 5.90625 -0.828125 L 2.703125 -0.828125 L 2.21875 0 L 0.046875 0 L 3.3125 -5.09375 L 5.296875 -5.09375 Z M 5.1875 -2.09375 L 4.296875 -3.640625 L 3.421875 -2.09375 Z M 5.1875 -2.09375 "/></g></g><g transform="translate(353.634628, 72.488935)"><g><path d="M 10.25 0 L 8.109375 0 L 8.109375 -3.25 L 6.203125 0 L 4.609375 0 L 2.703125 -3.25 L 2.703125 0 L 0.5625 0 L 0.5625 -5.09375 L 3.109375 -5.09375 L 5.40625 -1.453125 L 7.703125 -5.09375 L 10.25 -5.09375 Z M 10.25 0 "/></g></g><g transform="translate(364.456398, 72.488935)"><g><path d="M 6.703125 0 L 0.5625 0 L 0.5625 -5.09375 L 6.421875 -5.09375 L 6.421875 -3.828125 L 2.703125 -3.828125 L 2.703125 -3.03125 L 5.84375 -3.03125 L 5.84375 -2.046875 L 2.703125 -2.046875 L 2.703125 -1.265625 L 6.703125 -1.265625 Z M 6.703125 0 "/></g></g><g transform="translate(371.443683, 72.488935)"><g><path d="M 8.125 0 L 5.578125 0 L 2.703125 -3.4375 L 2.703125 0 L 0.5625 0 L 0.5625 -5.09375 L 3.109375 -5.09375 L 5.984375 -1.65625 L 5.984375 -5.09375 L 8.125 -5.09375 Z M 8.125 0 "/></g></g><g transform="translate(380.138734, 72.488935)"><g><path d="M 4.34375 0 L 2.203125 0 L 2.203125 -3.828125 L 0.21875 -3.828125 L 0.21875 -5.09375 L 6.34375 -5.09375 L 6.34375 -3.828125 L 4.34375 -3.828125 Z M 4.34375 0 "/></g></g><g transform="translate(386.692863, 72.488935)"><g><path d="M 3.84375 0.109375 C 2.59375 0.109375 1.671875 -0.148438 1.078125 -0.671875 C 0.546875 -1.128906 0.28125 -1.753906 0.28125 -2.546875 C 0.28125 -3.335938 0.546875 -3.960938 1.078125 -4.421875 C 1.671875 -4.929688 2.59375 -5.1875 3.84375 -5.1875 C 5.101562 -5.1875 6.03125 -4.929688 6.625 -4.421875 C 7.15625 -3.960938 7.421875 -3.335938 7.421875 -2.546875 C 7.421875 -1.753906 7.15625 -1.128906 6.625 -0.671875 C 6.03125 -0.148438 5.101562 0.109375 3.84375 0.109375 Z M 3.84375 -1.25 C 4.363281 -1.25 4.742188 -1.398438 4.984375 -1.703125 C 5.179688 -1.941406 5.28125 -2.222656 5.28125 -2.546875 C 5.28125 -2.867188 5.179688 -3.148438 4.984375 -3.390625 C 4.742188 -3.679688 4.363281 -3.828125 3.84375 -3.828125 C 3.332031 -3.828125 2.953125 -3.679688 2.703125 -3.390625 C 2.515625 -3.148438 2.421875 -2.867188 2.421875 -2.546875 C 2.421875 -2.222656 2.515625 -1.941406 2.703125 -1.703125 C 2.953125 -1.398438 3.332031 -1.25 3.84375 -1.25 Z M 3.84375 -1.25 "/></g></g><g transform="translate(394.397339, 72.488935)"><g/></g><g transform="translate(396.200967, 72.488935)"><g><path d="M 3.84375 0.109375 C 2.59375 0.109375 1.671875 -0.148438 1.078125 -0.671875 C 0.546875 -1.128906 0.28125 -1.753906 0.28125 -2.546875 C 0.28125 -3.335938 0.546875 -3.960938 1.078125 -4.421875 C 1.671875 -4.929688 2.59375 -5.1875 3.84375 -5.1875 C 5.101562 -5.1875 6.03125 -4.929688 6.625 -4.421875 C 7.15625 -3.960938 7.421875 -3.335938 7.421875 -2.546875 C 7.421875 -1.753906 7.15625 -1.128906 6.625 -0.671875 C 6.03125 -0.148438 5.101562 0.109375 3.84375 0.109375 Z M 3.84375 -1.25 C 4.363281 -1.25 4.742188 -1.398438 4.984375 -1.703125 C 5.179688 -1.941406 5.28125 -2.222656 5.28125 -2.546875 C 5.28125 -2.867188 5.179688 -3.148438 4.984375 -3.390625 C 4.742188 -3.679688 4.363281 -3.828125 3.84375 -3.828125 C 3.332031 -3.828125 2.953125 -3.679688 2.703125 -3.390625 C 2.515625 -3.148438 2.421875 -2.867188 2.421875 -2.546875 C 2.421875 -2.222656 2.515625 -1.941406 2.703125 -1.703125 C 2.953125 -1.398438 3.332031 -1.25 3.84375 -1.25 Z M 3.84375 -1.25 "/></g></g><g transform="translate(403.905443, 72.488935)"><g><path d="M 3.84375 0.109375 C 2.59375 0.109375 1.671875 -0.148438 1.078125 -0.671875 C 0.546875 -1.128906 0.28125 -1.753906 0.28125 -2.546875 C 0.28125 -3.335938 0.546875 -3.960938 1.078125 -4.421875 C 1.671875 -4.929688 2.59375 -5.1875 3.84375 -5.1875 C 4.582031 -5.1875 5.191406 -5.101562 5.671875 -4.9375 C 6.160156 -4.769531 6.535156 -4.535156 6.796875 -4.234375 C 7.066406 -3.941406 7.25 -3.609375 7.34375 -3.234375 L 5.09375 -3.234375 C 4.863281 -3.628906 4.445312 -3.828125 3.84375 -3.828125 C 3.332031 -3.828125 2.953125 -3.675781 2.703125 -3.375 C 2.515625 -3.144531 2.421875 -2.867188 2.421875 -2.546875 C 2.421875 -2.210938 2.515625 -1.929688 2.703125 -1.703125 C 2.953125 -1.398438 3.332031 -1.25 3.84375 -1.25 C 4.445312 -1.25 4.863281 -1.445312 5.09375 -1.84375 L 7.34375 -1.84375 C 7.25 -1.46875 7.066406 -1.128906 6.796875 -0.828125 C 6.535156 -0.535156 6.160156 -0.304688 5.671875 -0.140625 C 5.191406 0.0234375 4.582031 0.109375 3.84375 0.109375 Z M 3.84375 0.109375 "/></g></g><g transform="translate(411.531808, 72.488935)"><g><path d="M 3.578125 0.109375 C 2.335938 0.109375 1.460938 -0.144531 0.953125 -0.65625 C 0.523438 -1.09375 0.3125 -1.722656 0.3125 -2.546875 L 0.3125 -5.09375 L 2.453125 -5.09375 L 2.453125 -2.546875 C 2.453125 -2.191406 2.515625 -1.910156 2.640625 -1.703125 C 2.804688 -1.398438 3.117188 -1.25 3.578125 -1.25 C 4.035156 -1.25 4.351562 -1.398438 4.53125 -1.703125 C 4.644531 -1.910156 4.703125 -2.191406 4.703125 -2.546875 L 4.703125 -5.09375 L 6.84375 -5.09375 L 6.84375 -2.515625 C 6.84375 -1.710938 6.628906 -1.09375 6.203125 -0.65625 C 5.703125 -0.144531 4.828125 0.109375 3.578125 0.109375 Z M 3.578125 0.109375 "/></g></g><g transform="translate(418.700166, 72.488935)"><g><path d="M 6.515625 0 L 0.5625 0 L 0.5625 -5.09375 L 2.703125 -5.09375 L 2.703125 -1.265625 L 6.515625 -1.265625 Z M 6.515625 0 "/></g></g><g transform="translate(425.357259, 72.488935)"><g><path d="M 8.546875 0 L 6.390625 0 L 5.90625 -0.828125 L 2.703125 -0.828125 L 2.21875 0 L 0.046875 0 L 3.3125 -5.09375 L 5.296875 -5.09375 Z M 5.1875 -2.09375 L 4.296875 -3.640625 L 3.421875 -2.09375 Z M 5.1875 -2.09375 "/></g></g><g transform="translate(433.967099, 72.488935)"><g><path d="M 7.515625 0 L 5.5 0 C 5.40625 -0.125 5.335938 -0.285156 5.296875 -0.484375 C 5.265625 -0.640625 5.21875 -0.789062 5.15625 -0.9375 C 5.09375 -1.082031 4.976562 -1.203125 4.8125 -1.296875 C 4.644531 -1.398438 4.40625 -1.457031 4.09375 -1.46875 L 2.703125 -1.46875 L 2.703125 0 L 0.5625 0 L 0.5625 -5.09375 L 4.046875 -5.09375 C 4.867188 -5.09375 5.535156 -5.03125 6.046875 -4.90625 C 6.554688 -4.78125 6.925781 -4.582031 7.15625 -4.3125 C 7.394531 -4.050781 7.515625 -3.707031 7.515625 -3.28125 C 7.515625 -2.925781 7.429688 -2.625 7.265625 -2.375 C 7.109375 -2.132812 6.851562 -1.941406 6.5 -1.796875 C 6.84375 -1.660156 7.0625 -1.492188 7.15625 -1.296875 C 7.257812 -1.097656 7.320312 -0.882812 7.34375 -0.65625 C 7.375 -0.445312 7.429688 -0.226562 7.515625 0 Z M 2.703125 -2.71875 L 3.921875 -2.734375 C 4.265625 -2.734375 4.535156 -2.75 4.734375 -2.78125 C 4.929688 -2.8125 5.070312 -2.851562 5.15625 -2.90625 C 5.25 -2.957031 5.304688 -3.015625 5.328125 -3.078125 C 5.359375 -3.140625 5.375 -3.207031 5.375 -3.28125 C 5.375 -3.34375 5.359375 -3.40625 5.328125 -3.46875 C 5.304688 -3.539062 5.25 -3.601562 5.15625 -3.65625 C 5.070312 -3.707031 4.929688 -3.75 4.734375 -3.78125 C 4.535156 -3.8125 4.265625 -3.828125 3.921875 -3.828125 L 2.703125 -3.828125 Z M 2.703125 -2.71875 "/></g></g></g></svg>